<?xml version="1.0" standalone="no"?>
<!DOCTYPE svg PUBLIC "-//W3C//DTD SVG 20010904//EN"
 "http://www.w3.org/TR/2001/REC-SVG-20010904/DTD/svg10.dtd">
<svg version="1.0" xmlns="http://www.w3.org/2000/svg"
 width="512.000000pt" height="512.000000pt" viewBox="0 0 512.000000 512.000000"
 preserveAspectRatio="xMidYMid meet">

<g transform="translate(0.000000,512.000000) scale(0.100000,-0.100000)"
fill="#000000" stroke="none">
<path d="M4052 4540 c-87 -78 -318 -182 -515 -230 -67 -17 -146 -42 -174 -56
-90 -43 -149 -129 -243 -349 -28 -66 -69 -150 -90 -186 -76 -128 -204 -229
-290 -229 -42 0 -103 28 -148 66 l-33 29 226 200 c125 110 236 207 248 217 21
16 21 17 4 72 -10 31 -26 60 -35 65 -9 4 -51 16 -92 26 -41 10 -79 21 -83 25
-5 4 9 15 30 25 164 76 206 100 252 141 55 49 79 87 92 142 7 32 6 33 -14 27
-81 -26 -119 -28 -258 -15 -129 11 -151 11 -208 -4 -80 -20 -159 -62 -235
-124 -32 -26 -68 -55 -80 -64 -20 -17 -30 -15 -271 47 -137 36 -256 65 -262
65 -7 0 -153 -157 -324 -350 -304 -342 -312 -350 -349 -350 -34 0 -100 17
-100 26 0 10 64 162 90 214 17 33 30 62 30 64 0 6 -96 -38 -291 -132 -219
-106 -272 -175 -275 -361 l-1 -103 -124 -127 c-268 -273 -313 -321 -307 -326
3 -3 257 -67 564 -141 307 -74 560 -136 561 -138 6 -6 -85 -76 -99 -76 -7 0
-105 23 -218 50 l-205 50 -217 -222 c-120 -123 -218 -226 -218 -229 0 -4 70
-24 155 -45 85 -21 155 -41 155 -44 -1 -3 -32 -29 -70 -59 -39 -30 -70 -61
-69 -70 0 -9 8 -36 18 -61 l19 -45 351 -80 c194 -44 353 -83 354 -86 1 -3
-238 -258 -531 -567 -292 -308 -532 -567 -532 -575 0 -23 31 -107 40 -107 5 0
377 214 827 475 l818 475 95 -7 c169 -13 436 -8 540 11 205 37 367 114 485
231 99 99 134 174 195 420 60 243 94 304 215 391 78 55 150 85 278 115 53 13
97 26 97 30 0 3 -32 17 -72 30 -100 32 -224 31 -333 -4 -113 -35 -130 -38
-159 -27 -59 22 -37 115 49 209 71 76 122 102 311 156 87 25 183 57 212 70
156 71 222 182 287 480 62 287 105 354 308 481 51 32 124 82 163 111 78 58
219 201 274 278 l34 49 -64 -46 c-92 -64 -173 -107 -350 -183 -178 -77 -312
-144 -370 -186 -22 -16 -88 -86 -147 -156 -187 -220 -262 -301 -325 -348 -72
-54 -108 -57 -142 -12 -18 25 -21 42 -21 141 0 109 1 114 37 187 49 98 97 151
281 308 85 72 177 160 204 194 50 61 111 167 96 167 -5 -1 -27 -18 -51 -40z
m-2 -38 c0 -21 -121 -151 -217 -233 -218 -186 -285 -258 -335 -365 -57 -121
-51 -302 12 -359 63 -57 185 40 464 370 65 77 138 154 162 171 66 47 164 97
366 185 100 43 209 95 241 114 33 20 62 34 64 31 2 -2 -35 -44 -84 -92 -85
-85 -180 -158 -333 -254 -101 -63 -163 -127 -204 -213 -34 -70 -44 -104 -101
-347 -34 -149 -79 -242 -145 -304 -64 -60 -139 -94 -310 -140 -175 -47 -264
-91 -326 -159 -47 -52 -94 -136 -94 -170 0 -21 18 -59 34 -69 23 -15 97 -7
178 19 68 22 100 27 178 26 52 0 115 -7 140 -15 l45 -14 -90 -23 c-126 -31
-223 -80 -298 -150 -98 -92 -120 -139 -176 -363 -55 -222 -90 -303 -163 -383
-184 -201 -465 -287 -886 -271 -95 4 -180 10 -188 13 -19 7 -36 -4 271 173
127 73 233 136 238 140 8 7 -20 100 -37 116 -6 6 -53 22 -103 34 -51 12 -93
25 -93 28 0 4 66 73 147 154 92 92 144 151 138 157 -6 5 -81 25 -167 46 -87
20 -158 40 -158 44 0 4 19 21 43 40 48 37 36 38 235 -10 l143 -33 122 124 c67
69 173 178 237 243 78 80 111 120 103 125 -7 5 -56 19 -110 31 -105 26 -102
20 -35 69 l22 17 -20 61 -21 60 -162 38 c-398 93 -538 129 -535 135 2 6 199
181 290 259 16 13 21 11 55 -18 112 -98 217 -90 343 27 79 72 129 154 210 337
131 299 169 334 431 395 128 30 370 132 447 190 31 23 32 24 32 13z m-1005
-17 c39 0 85 3 103 7 42 10 42 -5 -1 -68 -43 -61 -113 -109 -256 -173 l-114
-51 -176 46 c-97 25 -178 48 -181 51 -11 10 140 122 217 162 69 35 111 41 228
34 61 -4 142 -7 180 -8z m-610 -220 c292 -74 534 -137 539 -138 5 -2 -83 -84
-194 -182 -112 -99 -314 -278 -449 -398 -135 -120 -246 -223 -246 -229 0 -12
128 -44 648 -164 92 -21 166 -43 164 -48 -2 -5 -37 -36 -79 -68 l-75 -59 -469
115 c-258 63 -649 158 -869 212 -220 53 -404 100 -408 104 -5 4 190 231 433
504 322 362 446 496 458 492 9 -3 256 -66 547 -141z m586 -195 c9 -31 9 -43 0
-54 -7 -8 -190 -172 -408 -363 -392 -345 -395 -348 -435 -345 -23 1 -48 6 -55
11 -11 6 103 112 429 399 243 216 446 392 450 392 4 0 13 -18 19 -40z m-1857
-107 c-65 -148 -87 -215 -73 -224 20 -13 80 -29 107 -29 19 0 0 -26 -109 -147
-73 -82 -133 -149 -133 -150 -1 -1 -53 11 -116 27 -63 16 -127 30 -142 30 -28
0 -28 1 -28 68 0 127 42 216 131 273 38 25 359 186 377 189 1 0 -5 -17 -14
-37z m-380 -649 c74 -19 106 -38 106 -63 0 -26 -43 -76 -79 -90 -20 -9 -27
-18 -24 -30 8 -32 -76 -111 -119 -111 -7 0 8 10 32 23 58 29 86 67 71 96 -10
18 -9 21 6 21 30 0 92 48 99 77 9 34 -8 47 -98 69 l-71 17 -45 -49 c-95 -103
-215 -224 -218 -221 -6 6 257 277 268 277 6 0 38 -7 72 -16z m77 -185 l-129
-134 29 -9 c27 -8 34 -5 72 32 43 42 70 52 83 31 4 -8 -1 -9 -16 -4 -18 6 -31
-2 -65 -35 -38 -37 -47 -41 -74 -35 -17 3 -33 10 -36 14 -5 9 255 285 261 278
3 -2 -54 -64 -125 -138z m-151 96 l-23 -25 35 0 c20 0 41 7 48 15 10 12 8 16
-11 24 -13 5 -19 10 -12 10 21 2 43 -11 43 -25 0 -27 -63 -44 -105 -28 -14 6
-12 11 11 35 15 16 30 27 32 24 3 -3 -5 -16 -18 -30z m317 29 c-3 -3 -12 -4
-19 -1 -8 3 -5 6 6 6 11 1 17 -2 13 -5z m40 -10 c-3 -3 -12 -4 -19 -1 -8 3 -5
6 6 6 11 1 17 -2 13 -5z m40 -10 c-3 -3 -12 -4 -19 -1 -8 3 -5 6 6 6 11 1 17
-2 13 -5z m53 -24 c26 -26 25 -39 -3 -78 -32 -42 -71 -72 -116 -88 -27 -9 -38
-19 -43 -41 -6 -26 -6 -25 -5 7 2 31 5 35 41 44 43 10 136 91 136 118 0 9 -12
26 -26 37 -15 12 -22 21 -15 21 6 0 20 -9 31 -20z m32 -107 c-50 -54 -109
-116 -131 -138 -36 -34 -39 -41 -24 -47 16 -6 16 -7 1 -7 -9 -1 -19 3 -22 8
-5 8 249 281 261 281 3 0 -35 -44 -85 -97z m-207 56 c-19 -17 -32 -35 -29 -40
9 -15 68 -10 92 7 28 19 28 32 0 44 -13 5 -18 9 -11 9 6 1 18 -2 27 -5 43 -16
-10 -74 -68 -74 -68 0 -77 13 -36 55 18 19 40 35 47 35 8 0 -2 -14 -22 -31z
m400 12 c39 -11 63 -19 55 -20 -8 0 -46 8 -85 18 -38 11 -63 19 -55 20 8 0 47
-8 85 -18z m-688 -43 c13 -11 12 -14 -7 -30 -23 -18 -57 -22 -97 -12 l-23 6
22 30 c18 26 25 29 55 25 19 -4 42 -12 50 -19z m793 15 c0 -4 -12 -20 -27 -35
-27 -29 -52 -34 -88 -18 -14 7 -9 8 18 4 31 -5 43 -2 63 17 18 17 21 25 12 31
-9 5 -8 8 5 8 9 0 17 -3 17 -7z m-160 -34 c20 -7 18 -8 -12 -3 -30 4 -39 1
-48 -15 -9 -18 -6 -21 32 -31 81 -21 82 -23 43 -60 -24 -23 -27 -23 -91 -11
-63 13 -66 13 -91 -10 l-26 -24 12 23 c17 33 33 36 103 22 59 -11 62 -11 85
13 l24 24 -60 13 c-34 7 -61 15 -61 18 0 11 44 52 54 51 6 -1 22 -5 36 -10z
m304 -8 c-49 -12 -387 -223 -372 -233 22 -14 62 -8 88 12 14 11 39 19 55 18
l30 -1 -30 -4 c-16 -3 -42 -14 -58 -25 -22 -16 -37 -19 -73 -13 -49 7 -53 14
-24 40 11 10 20 22 20 26 0 4 -26 13 -57 21 -32 7 -51 14 -43 15 26 5 115 -24
113 -36 -2 -6 -1 -11 1 -11 4 0 125 74 256 157 39 25 77 41 95 41 l30 0 -31
-7z m56 -13 c-1 -15 -39 -87 -40 -75 0 4 7 21 15 38 9 16 13 34 10 39 -3 6 -1
10 4 10 6 0 11 -6 11 -12z m1259 -38 c12 -34 11 -36 -26 -67 -41 -35 -57 -38
-117 -20 l-40 12 79 63 c43 34 81 59 85 55 4 -4 13 -24 19 -43z m-1101 1 c-38
-9 -274 -257 -252 -265 31 -12 49 -5 89 33 22 21 50 42 62 46 22 6 23 5 16
-42 -8 -62 -17 -72 -11 -11 6 56 -6 56 -69 -5 -37 -36 -45 -39 -77 -33 -20 4
-36 11 -36 15 0 5 57 67 126 140 103 107 131 131 152 130 l27 -1 -27 -7z
m-1303 -15 c28 -8 43 -15 35 -15 -8 0 -37 6 -65 13 -27 8 -43 15 -35 15 8 0
38 -6 65 -13z m1355 5 c0 -6 -4 -12 -10 -16 -5 -3 -19 -19 -30 -35 l-21 -30
27 10 c48 19 35 4 -16 -17 -28 -12 -50 -18 -50 -14 0 4 20 27 45 51 24 24 42
47 39 52 -3 4 0 8 5 8 6 0 11 -4 11 -9z m-994 -50 c-5 -34 -3 -39 17 -45 39
-10 57 -7 58 12 0 10 2 12 6 4 12 -30 -4 -41 -44 -30 -21 5 -41 13 -45 17 -8
7 1 81 10 81 2 0 2 -17 -2 -39z m-263 22 c-7 -2 -21 -2 -30 0 -10 3 -4 5 12 5
17 0 24 -2 18 -5z m1417 -4 c19 -5 50 -12 69 -15 76 -10 75 -13 -69 -158 -74
-75 -141 -136 -150 -135 -10 0 -9 3 5 8 18 8 255 253 255 264 0 11 -51 13 -63
3 -7 -6 -65 -64 -127 -129 -91 -94 -111 -120 -100 -127 13 -8 12 -10 -2 -10
-9 0 -19 4 -22 8 -3 5 52 69 122 142 70 74 120 131 112 128 -119 -46 -207 -83
-215 -90 -5 -5 -15 -35 -22 -66 l-12 -57 6 60 c3 33 7 63 9 66 2 4 48 24 101
44 54 21 102 41 107 46 19 17 -64 21 -104 5 -55 -22 -65 -19 -15 4 47 22 68
24 115 9z m-490 -6 c-1 -5 -9 -22 -18 -39 -16 -29 -19 -30 -51 -22 l-35 10 45
28 c46 30 59 35 59 23z m34 -113 l-48 -102 -35 7 c-50 10 -53 13 -36 45 15 29
15 29 -17 40 l-33 10 34 -5 c44 -7 44 -7 30 -39 -14 -30 -13 -32 24 -41 26 -7
29 -4 63 71 20 44 40 90 45 103 5 13 12 21 15 19 3 -3 -16 -52 -42 -108z m555
-17 c-52 -54 -111 -116 -131 -138 l-38 -40 28 -8 c26 -8 34 -3 107 72 43 45
80 80 82 78 1 -2 -1 -30 -7 -63 -8 -55 -9 -56 -7 -12 l2 48 -71 -71 c-66 -66
-74 -71 -103 -64 -17 3 -34 11 -37 16 -5 9 251 279 265 279 2 0 -38 -44 -90
-97z m135 81 c10 -4 16 -17 15 -38 l-1 -31 -7 29 c-3 16 -15 33 -26 37 -11 4
-15 8 -8 8 6 1 18 -2 27 -5z m77 -119 c-47 -46 -87 -81 -88 -77 -2 4 1 34 7
67 l9 60 -3 -58 -3 -59 76 76 c42 42 79 76 82 76 3 0 -33 -38 -80 -85z m-1216
56 c39 -11 63 -19 55 -20 -8 0 -46 8 -85 18 -38 11 -63 19 -55 20 8 0 47 -8
85 -18z m1351 11 c8 -4 -36 -57 -120 -145 -132 -138 -132 -139 -167 -130 -30
8 -34 13 -35 44 -1 33 -1 33 3 3 3 -25 10 -33 31 -37 24 -5 42 9 155 121 70
70 127 130 127 134 0 3 -8 9 -17 11 -13 3 -14 5 -3 6 8 0 20 -3 26 -7z m206
-40 c10 -4 -13 -7 -50 -7 -56 0 -79 -6 -132 -32 -68 -33 -118 -78 -144 -128
-9 -16 -16 -24 -16 -16 0 27 45 81 97 118 85 58 191 86 245 65z m53 -32 c10
-11 16 -20 13 -20 -3 0 -13 9 -23 20 -10 11 -16 20 -13 20 3 0 13 -9 23 -20z
m-74 -51 c20 -20 21 -20 59 -1 22 11 37 15 34 10 -4 -6 -22 -17 -41 -25 -33
-13 -37 -13 -57 6 -14 13 -36 21 -56 21 -43 0 -114 -34 -140 -67 -62 -79 28
-118 105 -44 36 35 43 38 73 29 17 -5 32 -12 32 -16 0 -4 -24 -31 -54 -61 -45
-44 -60 -53 -97 -56 l-44 -4 44 9 c52 11 151 98 128 112 -25 16 -54 7 -87 -27
-23 -24 -43 -35 -63 -35 -69 0 -87 45 -40 101 54 64 162 90 204 48z m-859 -51
c-6 -6 -7 0 -4 19 5 21 7 23 10 9 2 -10 0 -22 -6 -28z m-44 12 c22 -7 23 -8 6
-9 -11 -1 -29 6 -40 15 -10 8 -13 12 -6 9 8 -4 26 -11 40 -15z m-118 -231
c459 -111 839 -205 844 -210 5 -5 -81 -98 -200 -218 l-209 -210 -630 153
c-346 85 -728 177 -849 206 l-218 53 103 106 c57 58 151 154 209 214 57 59
107 107 110 107 3 0 381 -90 840 -201z m125 89 c187 -45 343 -84 347 -87 3 -3
-15 -22 -40 -42 l-47 -36 -316 77 c-174 42 -347 85 -385 95 l-68 18 40 34 c50
43 38 45 469 -59z m624 -7 c14 -5 35 -12 46 -14 16 -4 15 -5 -5 -6 -27 -1 -90
33 -90 48 0 5 -2 18 -5 28 -3 10 2 4 11 -14 9 -17 29 -36 43 -42z m-185 -97
c20 -3 38 -10 41 -14 3 -4 -15 -24 -39 -44 l-44 -36 -56 12 c-31 6 -56 14 -55
17 1 12 94 80 106 76 6 -2 28 -7 47 -11z m-1192 -383 c156 -38 460 -112 677
-165 l395 -97 65 65 66 64 78 -22 c43 -12 79 -25 80 -29 1 -4 -200 -125 -448
-268 -247 -144 -691 -401 -985 -572 -294 -170 -563 -327 -598 -348 l-63 -38
48 53 c26 30 255 271 508 537 574 603 552 579 536 588 -7 4 -67 20 -134 35
-67 15 -237 55 -377 88 -140 34 -265 63 -277 66 -20 4 -15 11 45 58 37 30 75
54 84 54 10 0 145 -31 300 -69z m-55 -151 c210 -49 384 -90 388 -90 3 0 -4
-13 -17 -30 -12 -16 -29 -30 -38 -30 -14 0 -657 143 -701 156 -9 2 -21 22 -27
43 -15 48 -15 51 1 46 6 -2 184 -45 394 -95z m1486 -131 c-9 -9 -2159 -1258
-2178 -1265 -8 -3 -18 12 -28 39 l-15 44 1097 637 1096 637 18 -42 c10 -23 15
-45 10 -50z"/>
<path d="M607 3122 c-9 -10 -14 -22 -10 -25 12 -13 71 -7 83 8 16 19 12 23
-26 31 -22 4 -34 0 -47 -14z"/>
<path d="M1515 2970 l-30 -20 26 0 c18 0 28 6 32 20 3 11 4 20 4 20 -1 0 -15
-9 -32 -20z"/>
<path d="M800 2461 l-134 -128 32 -8 c28 -6 38 -2 75 30 23 21 61 58 85 83 23
24 44 43 47 41 2 -2 0 -24 -5 -49 -4 -25 -11 -68 -14 -97 l-7 -52 37 -7 c36
-7 38 -5 165 122 70 70 126 131 123 136 -3 4 -17 8 -32 8 -20 0 -48 -21 -110
-82 l-84 -83 8 75 c13 133 13 135 -21 137 -26 2 -48 -14 -165 -126z"/>
<path d="M1172 2382 c-73 -70 -132 -130 -132 -133 0 -3 47 -16 104 -29 102
-22 104 -22 130 -4 14 11 26 22 26 26 0 4 -26 12 -59 19 -83 16 -92 24 -59 53
26 24 27 24 92 8 l67 -16 25 25 25 25 -66 13 c-36 7 -65 16 -64 20 0 3 14 17
31 30 l30 24 71 -17 c63 -15 72 -15 93 -1 44 28 32 36 -101 65 -27 6 -57 13
-65 15 -9 2 -69 -48 -148 -123z"/>
<path d="M1474 2307 c-80 -140 -81 -142 -59 -150 20 -7 45 6 145 73 67 45 123
80 125 78 2 -2 -21 -43 -51 -91 -100 -160 -69 -151 321 101 l40 26 -33 8 c-31
8 -42 4 -137 -56 -56 -37 -105 -66 -109 -66 -3 0 16 35 44 77 34 55 45 80 37
85 -29 18 -67 5 -159 -57 -54 -36 -100 -65 -103 -65 -2 0 16 33 40 74 50 82
54 96 26 96 -11 0 -25 2 -33 5 -8 3 -41 -45 -94 -138z"/>
<path d="M2012 2299 c-46 -23 -82 -62 -82 -89 0 -9 19 -32 42 -50 l41 -33 -23
-19 c-12 -10 -32 -18 -44 -18 -22 0 -61 29 -68 50 -5 17 -78 -15 -78 -34 0
-19 26 -45 57 -57 70 -26 198 14 228 71 19 36 12 54 -31 81 -38 23 -43 43 -15
59 30 15 56 12 85 -11 23 -18 30 -19 62 -9 44 15 42 38 -6 62 -47 24 -116 23
-168 -3z"/>
</g>
</svg>
